<?xml version="1.0" encoding="utf-8"?>
<!-- Generator: Adobe Illustrator 24.0.1, SVG Export Plug-In . SVG Version: 6.00 Build 0)  -->
<svg version="1.1" id="图层_1" xmlns="http://www.w3.org/2000/svg" xmlns:xlink="http://www.w3.org/1999/xlink" x="0px" y="0px"
	 viewBox="0 0 2400 400" style="enable-background:new 0 0 2400 400;" xml:space="preserve">
<style type="text/css">
	.st0{fill:none;}
	.st1{fill:#C1A7A7;}
	.st2{fill:none;stroke:#493B3B;stroke-width:6;stroke-linecap:round;stroke-linejoin:round;stroke-miterlimit:10;}
	.st3{fill:none;stroke:#493B3B;stroke-width:4;stroke-linecap:round;stroke-linejoin:round;stroke-miterlimit:10;}
	.st4{fill:#E2A86D;}
	.st5{fill:#D6975F;}
	.st6{fill:none;stroke:#CC894C;stroke-width:6;stroke-linecap:round;stroke-linejoin:round;stroke-miterlimit:10;}
	.st7{fill:#E5D6D6;}
	.st8{fill:#EFE6E6;}
	
		.st9{opacity:0.2;fill:#2D2D2D;stroke:#2D2D2D;stroke-width:8;stroke-linecap:round;stroke-linejoin:round;stroke-miterlimit:10;enable-background:new    ;}
	.st10{fill:#DBC8C8;}
	.st11{fill:#845B5B;}
	.st12{fill:#704848;}
	.st13{fill:none;stroke:#493B3B;stroke-width:3;stroke-linecap:round;stroke-linejoin:round;stroke-miterlimit:10;}
	.st14{fill:none;stroke:#493B3B;stroke-width:8;stroke-linecap:round;stroke-linejoin:round;stroke-miterlimit:10;}
	.st15{fill:#B57F7F;}
	.st16{opacity:0.34;fill:#FFFFFF;enable-background:new    ;}
	.st17{fill:#AD6D6D;}
	.st18{fill:#4C3535;}
	.st19{fill:#3F2E2E;}
	.st20{fill:#6A4949;}
	.st21{fill:#493B3B;}
	.st22{opacity:0.38;fill:#FFFFFF;enable-background:new    ;}
	.st23{fill:#443636;}
	.st24{enable-background:new    ;}
	.st25{fill:#333333;}
</style>
<g>
	<title>background</title>
	<rect id="canvas_background" x="26.5" y="2.5" class="st0" width="2280" height="394"/>
</g>
<g>
	<title>Layer 1</title>
	<path id="XMLID_89_" class="st1" d="M194.9,81.4h-84v-14c0-8.8,7.2-16,16-16h52c8.8,0,16,7.2,16,16V81.4z"/>
	<path id="XMLID_2_" class="st2" d="M194.9,81.4h-84v-14c0-8.8,7.2-16,16-16h52c8.8,0,16,7.2,16,16V81.4z"/>
	<g id="XMLID_190_">
		<g id="XMLID_217_">
			<line id="XMLID_218_" class="st3" x1="190.2" y1="54.7" x2="190.2" y2="81.4"/>
		</g>
		<g id="XMLID_214_">
			<line id="XMLID_215_" class="st3" x1="181.2" y1="54.7" x2="181.2" y2="81.4"/>
		</g>
		<g id="XMLID_211_">
			<line id="XMLID_212_" class="st3" x1="172.2" y1="54.7" x2="172.2" y2="81.4"/>
		</g>
		<g id="XMLID_208_">
			<line id="XMLID_209_" class="st3" x1="163.2" y1="54.7" x2="163.2" y2="81.4"/>
		</g>
		<g id="XMLID_205_">
			<line id="XMLID_206_" class="st3" x1="154.2" y1="54.7" x2="154.2" y2="81.4"/>
		</g>
		<g id="XMLID_202_">
			<line id="XMLID_203_" class="st3" x1="145.2" y1="54.7" x2="145.2" y2="81.4"/>
		</g>
		<g id="XMLID_199_">
			<line id="XMLID_200_" class="st3" x1="136.2" y1="54.7" x2="136.2" y2="81.4"/>
		</g>
		<g id="XMLID_196_">
			<line id="XMLID_197_" class="st3" x1="127.2" y1="54.7" x2="127.2" y2="81.4"/>
		</g>
		<g id="XMLID_193_">
			<line id="XMLID_194_" class="st3" x1="118.2" y1="54.7" x2="118.2" y2="81.4"/>
		</g>
	</g>
	<path id="XMLID_53_" class="st4" d="M536.3,45.5h-322c-8.9,0-17.1,4.3-22.5,11.3c-11.3,15-29.3,24.7-49.5,24.7h-118v252
		c0,13.3,10.7,24,24,24h488c13.3,0,24-10.7,24-24v-264C560.3,56.2,549.5,45.5,536.3,45.5L536.3,45.5z"/>
	<rect id="XMLID_80_" x="24.3" y="125.2" class="st5" width="29" height="204.1"/>
	<rect id="XMLID_111_" x="531.3" y="125.2" class="st5" width="29" height="204.1"/>
	<g id="XMLID_69_">
		<g id="XMLID_336_">
			<g id="XMLID_358_">
				<path id="XMLID_359_" class="st6" d="M101.4,117c48.4,25.1,70.8,73.9,55.8,115.9c-17.6,49.6-78.2,64-81.7,64.7"/>
			</g>
			<path id="XMLID_357_" class="st6" d="M118.6,244.2c-20.8,19.7-59.1,27.6-93.8,12.5"/>
			<path id="XMLID_356_" class="st6" d="M36.5,138.6c52.5,3.9,91.7,30.8,97.3,62.5c0.3,1.7,2.7,16.4-4.7,31.6"/>
			<path id="XMLID_355_" class="st6" d="M27.4,184c20.8-12.9,40.1-14.2,58.1-6.6c12.6,5.5,28.3,18.9,26.5,29.3
				c-3.1,18.2-38.6,39.5-69.1,38.6"/>
			<path id="XMLID_354_" class="st6" d="M75.4,185.6c2.4,1.7,15.6,8.2,12.6,22.5c-1,4.7-14.5,21.3-37.3,17.9"/>
			<path id="XMLID_353_" class="st6" d="M37.8,203.3c11.8-7.6,29.8-14.9,37.6-3.3"/>
			<path id="XMLID_352_" class="st6" d="M37.8,286.2c8.5,0.6,57.9,3.3,89.5-27.3c8.2-8,13.5-16.4,16.9-23.9"/>
			<path id="XMLID_351_" class="st6" d="M150.7,117c6.1,12.6,22.2,40.3,55.8,53.4c50.5,19.8,121.4-0.9,166.1-55.7"/>
			<path id="XMLID_350_" class="st6" d="M192.2,118.1c0.6,4.1,3.1,16.8,15.6,27.3c16.8,14.1,38.1,12.7,41.5,12.5"/>
			<path id="XMLID_349_" class="st6" d="M202.4,258.2c-12.1-6.9-30.3-18.1-30.3-50.1c0-10.5,3.7-16.4,6.6-17.8
				c9.9-4.7,41.8,26.6,82.3,35.7c31.5,7.1,83.8-10,157.9-64.9"/>
			<path id="XMLID_348_" class="st6" d="M443.8,122.7c-27.2,3-81.2,12.9-115.5,51.1c-1.9,2-22.5,25.2-16.9,30.7
				c3.7,3.6,31.9-35,85.3-52.2c12.9-4.2,24.1-6.1,31.9-7"/>
			<path id="XMLID_347_" class="st6" d="M119.5,319.1c6.3-26.7,25.4-44.7,45.4-45.4c0.7,0,17.3-0.5,24.7,9.1
				c8.8,11.5,1.5,34.1-23.4,52.2"/>
			<path id="XMLID_346_" class="st6" d="M161.8,260.8c23.6-2.1,44.7,8.3,55.6,24.9c13.9,21,11.6,46.3-13.6,62.9"/>
			<path id="XMLID_345_" class="st6" d="M442,166.6c-3.7,3.7-22.5,16.1-29.8,19.8c-38.2,18.9-43.5,8.8-81.3,46.3
				c-20.4,20.2-38.1,69.6-68.7,103.6"/>
			<path id="XMLID_344_" class="st6" d="M483.1,93.4c-0.7,19.8-12.7,41.6-30.4,61.9"/>
			<path id="XMLID_343_" class="st6" d="M547.6,139.7c-8,1-55.3,7.6-81.7,44.3c-3.4,4.6-14.6,20.7-15.6,42
				c-1.6,36.9,28.5,73.4,75.2,94.3"/>
			<path id="XMLID_342_" class="st6" d="M485.2,250.3c7.6,23.5,35,42.7,68.9,49.6"/>
			<path id="XMLID_341_" class="st6" d="M548.9,182.9c-27.9,4.5-56.7,20.1-63.5,40.4c-1.5,4.3-2.2,8.6-2.3,12.9"/>
			<path id="XMLID_340_" class="st6" d="M351.7,336.2c10.8-54.4,45.5-81.3,64.2-92.1c19.2-11,40-6.4,21.4,23.9
				c-13.1,21.5,0.8,52.2-28.5,71.6"/>
			<path id="XMLID_339_" class="st6" d="M558,206.7c-32.2,4.2-50.9,19.3-49.3,29.5c1.3,8.4,16.6,15.5,35,18.2"/>
			<path id="XMLID_338_" class="st6" d="M423.1,223.7c3.8-13.2,13.8-39.8,40.2-64.7c29.4-27.8,62.9-38.2,77.8-42"/>
			<path id="XMLID_337_" class="st6" d="M399.3,290.1c-1.6-13.6,4.9-24.1,13.2-25.7c1.5-0.3,10.6-1,10.6,9.4"/>
		</g>
	</g>
	<g id="XMLID_120_">
		<path id="XMLID_117_" class="st7" d="M181.5,312.7l50.3-22.2l-19.4-43.9l-50.3,22.2c-12.1,5.4-17.6,19.5-12.3,31.6l0,0
			C155.2,312.6,169.4,318,181.5,312.7z"/>
		<path id="XMLID_106_" class="st2" d="M181.5,312.7l50.3-22.2l-19.4-43.9l-50.3,22.2c-12.1,5.4-17.6,19.5-12.3,31.6l0,0
			C155.2,312.6,169.4,318,181.5,312.7z"/>
		<circle id="XMLID_119_" class="st8" cx="171.8" cy="290.7" r="14.4"/>
		<circle id="XMLID_110_" class="st3" cx="171.8" cy="290.7" r="14.4"/>
	</g>
	<path id="XMLID_55_" class="st7" d="M24.3,329.3v4.1c0,13.3,10.7,24,24,24h488c13.3,0,24-10.7,24-24v-4.1
		C560.3,329.3,24.3,329.3,24.3,329.3z"/>
	<path id="XMLID_147_" class="st9" d="M292.3,128.1c-62.7,0-113.5,51-113.5,113.8c0,8,0.8,15.8,2.4,23.4l-19.1,8.4
		c-12.1,5.4-17.6,19.5-12.3,31.6l0,0c5.4,12.1,19.5,17.6,31.6,12.3l19.2-8.5c20.6,28.3,54,46.6,91.6,46.6
		c62.7,0,113.5-51,113.5-113.8C405.8,179.1,355,128.1,292.3,128.1z"/>
	<path id="XMLID_153_" class="st10" d="M536.3,357.5h-5v-28.1h29v4.1C560.3,346.7,549.5,357.5,536.3,357.5z"/>
	<path id="XMLID_133_" class="st10" d="M48.3,357.5h5v-28.1h-29v4.1C24.3,346.7,35,357.5,48.3,357.5z"/>
	<path id="XMLID_54_" class="st7" d="M536.3,45.2h-322c-8.9,0-17.2,4.3-22.5,11.4c-11.3,15.1-29.3,24.8-49.5,24.8h-118v43.8h536
		V69.3C560.3,56,549.5,45.2,536.3,45.2z"/>
	<rect id="XMLID_4_" x="24.3" y="82.4" class="st10" width="29" height="42.8"/>
	<path id="XMLID_166_" class="st1" d="M391.5,109.4h-335c-1.8,0-3.3-1.5-3.3-3.3l0,0c0-1.8,1.5-3.3,3.3-3.3h335
		c1.8,0,3.3,1.5,3.3,3.3l0,0C394.8,107.9,393.3,109.4,391.5,109.4z"/>
	<path id="XMLID_142_" class="st10" d="M536.2,45.2h-5v80h29v-56C560.2,56,549.5,45.2,536.2,45.2z"/>
	<ellipse id="XMLID_22_" class="st7" cx="292.3" cy="225" rx="113.5" ry="113.8"/>
	<circle id="XMLID_90_" class="st11" cx="292.3" cy="225" r="91"/>
	<path id="XMLID_126_" class="st12" d="M292.3,154c46.8,0,85.5,35.5,90.4,81c0.4-3.3,0.6-6.6,0.6-10c0-50.2-40.8-91-91-91
		s-91,40.8-91,91c0,3.4,0.2,6.7,0.6,10C206.8,189.5,245.5,154,292.3,154z"/>
	<path id="XMLID_52_" class="st2" d="M536.3,45.5h-322c-8.9,0-17.1,4.3-22.5,11.3c-11.3,15-29.3,24.7-49.5,24.7h-118v252
		c0,13.3,10.7,24,24,24h488c13.3,0,24-10.7,24-24v-264C560.3,56.2,549.5,45.5,536.3,45.5L536.3,45.5z"/>
	<circle id="XMLID_24_" class="st13" cx="292.3" cy="225" r="102.5"/>
	<circle id="XMLID_25_" class="st14" cx="292.3" cy="225" r="91"/>
	<circle id="XMLID_82_" class="st15" cx="292.3" cy="225" r="62"/>
	<path id="XMLID_91_" class="st16" d="M335,225c30,0,46.5,35,27.3,58c-16.7,20.1-41.9,33-70,33s-53.3-12.8-70-33
		c-19.2-23.1-2.6-58,27.3-58L335,225L335,225z"/>
	<path id="XMLID_108_" class="st17" d="M292.3,183c30.8,0,56.4,22.6,61.2,52c0.5-3.3,0.8-6.6,0.8-10c0-34.2-27.8-62-62-62
		s-62,27.8-62,62c0,3.4,0.3,6.7,0.8,10C235.9,205.5,261.5,183,292.3,183z"/>
	<circle id="XMLID_27_" class="st2" cx="292.3" cy="225" r="62"/>
	<circle id="XMLID_84_" class="st18" cx="292.3" cy="225" r="37"/>
	<circle id="XMLID_37_" class="st13" cx="292.3" cy="225" r="37"/>
	<circle id="XMLID_85_" class="st19" cx="292.3" cy="225" r="23.5"/>
	<path id="XMLID_150_" class="st20" d="M99.7,81.4H47.4v-10c0-3.3,2.7-6,6-6h40.3c3.3,0,6,2.7,6,6V81.4z"/>
	<path id="XMLID_20_" class="st2" d="M99.7,81.4H47.4v-10c0-3.3,2.7-6,6-6h40.3c3.3,0,6,2.7,6,6V81.4z"/>
	<rect id="XMLID_29_" x="55.6" y="53.5" class="st2" width="36" height="11.9"/>
	<rect id="XMLID_115_" x="55.6" y="53.5" class="st21" width="36" height="11.9"/>
	<ellipse id="XMLID_79_" class="st14" cx="292.3" cy="225" rx="113.5" ry="113.8"/>
	<path id="XMLID_98_" class="st22" d="M292.3,201.5c-13,0-23.5,10.5-23.5,23.5c0,0.1,0,0.1,0,0.2c3.1-2.6,7.7-4,13.8-3.5
		c6.1,0.5,7.2,2.4,14,4.4c6,1.7,13.7,1.1,19.2-1.6C315.5,211.7,305.1,201.5,292.3,201.5L292.3,201.5z"/>
	<circle id="XMLID_26_" class="st13" cx="292.3" cy="225" r="76"/>
	<circle id="XMLID_86_" class="st14" cx="292.3" cy="225" r="91"/>
	<path id="XMLID_114_" class="st23" d="M505.8,117.2h-85.7c-6.5,0-11.8-5.3-11.8-11.8V71.2c0-6.5,5.3-11.8,11.8-11.8h85.7
		c6.5,0,11.8,5.3,11.8,11.8v34.2C517.6,111.9,512.3,117.2,505.8,117.2z"/>
	<path id="XMLID_151_" class="st3" d="M505.8,117.2h-85.7c-6.5,0-11.8-5.3-11.8-11.8V71.2c0-6.5,5.3-11.8,11.8-11.8h85.7
		c6.5,0,11.8,5.3,11.8,11.8v34.2C517.6,111.9,512.3,117.2,505.8,117.2z"/>
	<path id="XMLID_149_" class="st11" d="M498.3,111.2h-70.7c-5.5,0-10-4.5-10-10V75.4c0-5.5,4.5-10,10-10h70.7c5.5,0,10,4.5,10,10
		v25.8C508.3,106.8,503.8,111.2,498.3,111.2z"/>
	<path id="XMLID_395_" class="st22" d="M481,111.2L508.2,74c-0.7-4.8-4.8-8.6-9.9-8.6h-3.2l-33.4,45.8H481z"/>
	<polygon id="XMLID_394_" class="st22" points="454.4,111.2 487.8,65.4 481.9,65.4 448.5,111.2 	"/>
	<g id="svg_3" class="st24">
		<path class="st25" d="M832.7,75c2.3-2.2,5-3.3,8.3-3.3c3.4,0,6.2,1.1,8.4,3.3c2.2,2.2,3.3,5,3.3,8.4v210.9c0,3.2-1.1,6-3.3,8.3
			c-2.2,2.3-5,3.5-8.4,3.5c-3.2,0-6-1.1-8.3-3.5c-2.3-2.3-3.5-5-3.5-8.3V198H682.8v96.3c0,3.2-1.1,6-3.3,8.3c-2.2,2.3-5,3.5-8.4,3.5
			c-3.2,0-6-1.1-8.3-3.5c-2.3-2.3-3.5-5-3.5-8.3V83.4c0-3.4,1.1-6.2,3.5-8.4c2.3-2.2,5-3.3,8.3-3.3c3.4,0,6.2,1.1,8.4,3.3
			c2.2,2.2,3.3,5,3.3,8.4V177h146.4V83.4C829.2,80,830.4,77.2,832.7,75z"/>
		<path class="st25" d="M1000.8,147.2c9.8,4.5,17.7,10.8,23.7,18.8c1.6,2.6,2.4,4.9,2.4,6.9c0,3.4-1.6,6.1-4.8,8.1
			c-1.4,1-3.3,1.5-5.7,1.5c-4.2,0-7.7-1.5-10.5-4.5c-9.8-11.2-23.2-16.8-40.2-16.8c-11,0-19.8,2.3-26.4,6.8
			c-6.6,4.5-9.9,10.2-9.9,17c0,7.2,3.1,13,9.3,17.3c6.2,4.3,17.2,7.8,33,10.4c21.4,3.6,36.7,9.4,45.9,17.5
			c9.2,8.1,13.8,18.1,13.8,30.1c0,9.2-2.8,17.4-8.3,24.6c-5.5,7.2-13.2,12.8-23,16.8c-9.8,4-20.9,6-33.3,6
			c-12.4,0-24.3-2.1-35.7-6.3s-20.6-10.1-27.6-17.7c-2-2.4-3-4.7-3-6.9c0-3.4,1.6-6.4,4.8-9c2.4-1.8,4.9-2.7,7.5-2.7
			c3.4,0,6.3,1.4,8.7,4.2c4.8,5.6,11.1,9.9,19,12.9c7.9,3,16.7,4.5,26.3,4.5c14,0,24.5-2.4,31.5-7.2c7-4.8,10.6-11.1,10.8-18.9
			c0-7.2-3.5-13.2-10.5-18c-7-4.8-18.1-8.4-33.3-10.8c-19.6-3.2-34.3-8.7-43.9-16.6c-9.7-7.9-14.6-17.4-14.6-28.7
			c0-14.6,5.6-25.9,17-33.9c11.3-8,25.4-12,42.5-12C979.5,140.4,991,142.7,1000.8,147.2z"/>
		<path class="st25" d="M1099.2,82.5c3.2,3,4.8,6.9,4.8,11.7c0,4.6-1.6,8.5-4.8,11.7c-3.2,3.2-7.1,4.8-11.7,4.8
			c-4.6,0-8.5-1.6-11.5-4.8c-3.1-3.2-4.7-7.1-4.7-11.7c0-4.8,1.6-8.7,4.8-11.7c3.2-3,7.1-4.5,11.7-4.5
			C1092.2,78,1096,79.5,1099.2,82.5z M1079.4,145.2c2.2-2.2,5-3.3,8.4-3.3c3.4,0,6.2,1.1,8.3,3.3c2.1,2.2,3.2,5,3.2,8.4v140.7
			c0,3.4-1.1,6.2-3.2,8.4c-2.1,2.2-4.9,3.3-8.3,3.3c-3.4,0-6.2-1.1-8.4-3.3c-2.2-2.2-3.3-5-3.3-8.4V153.6
			C1076.1,150.2,1077.2,147.4,1079.4,145.2z"/>
		<path class="st25" d="M1267.2,150.8c11.4,6.9,20.3,16.5,26.5,28.7c6.3,12.2,9.5,26.1,9.5,41.7c0,3.2-1,5.8-3,7.7
			c-2,1.9-4.6,2.8-7.8,2.8h-121.2c1.6,16.4,8,29.7,19.2,39.9c11.2,10.2,25.2,15.3,42,15.3c7.2,0,14.4-1.2,21.8-3.8
			c7.3-2.5,13.1-5.6,17.5-9.5c2.6-2,5.3-3,8.1-3c2.2,0,4.4,0.8,6.6,2.4c2.6,2.4,3.9,5.1,3.9,8.1c0,2.6-1.1,4.9-3.3,6.9
			c-6.6,5.6-15,10.3-25.2,14c-10.2,3.7-20,5.5-29.4,5.5c-16,0-30.3-3.5-42.9-10.7c-12.6-7.1-22.5-17-29.5-29.7
			c-7.1-12.7-10.7-27-10.7-43.1c0-16.2,3.3-30.6,10-43.3c6.7-12.7,16-22.6,27.9-29.7c11.9-7.1,25.4-10.6,40.7-10.6
			C1242.7,140.4,1255.8,143.9,1267.2,150.8z M1190.1,175.2c-10,9.4-16.1,21.8-18.3,37.2h109.8c-1.6-15.4-7.2-27.8-16.8-37.2
			c-9.6-9.4-21.9-14.1-36.9-14.1C1212.7,161.1,1200.1,165.8,1190.1,175.2z"/>
		<path class="st25" d="M1458.1,149.1c11.3,6,20.1,14.8,26.5,26.3c6.4,11.5,9.6,25.3,9.6,41.3v78c0,3.2-1.1,5.9-3.3,8.1
			c-2.2,2.2-4.9,3.3-8.1,3.3c-3.4,0-6.2-1.1-8.4-3.3c-2.2-2.2-3.3-4.9-3.3-8.1v-78c0-17.8-5-31.3-14.8-40.6
			c-9.9-9.3-22.9-14-38.9-14c-9.8,0-18.7,1.9-26.5,5.7c-7.9,3.8-14.2,9.1-18.8,15.8c-4.6,6.7-6.9,14.2-6.9,22.3v88.8
			c0,3.4-1,6.2-3.1,8.3c-2.1,2.1-4.9,3.2-8.3,3.2c-3.4,0-6.2-1-8.4-3.2c-2.2-2.1-3.3-4.8-3.3-8.3v-141c0-3.4,1.1-6.2,3.3-8.4
			c2.2-2.2,5-3.3,8.4-3.3c3.4,0,6.1,1.1,8.3,3.3c2.1,2.2,3.1,5,3.1,8.4v10.2c6.6-7.4,14.6-13.2,24-17.4c9.4-4.2,19.6-6.3,30.6-6.3
			C1434.1,140.1,1446.8,143.1,1458.1,149.1z"/>
		<path class="st25" d="M1796.2,74.9c1.9,2.1,2.9,4.7,2.9,7.7c0,2.8-0.7,5.3-2.1,7.5l-81.9,129.3v75c0,3.2-1.1,6-3.3,8.3
			c-2.2,2.3-5,3.5-8.4,3.5c-3.2,0-6-1.1-8.3-3.5c-2.3-2.3-3.5-5-3.5-8.3v-75L1610.1,90c-1.6-2.6-2.4-5.1-2.4-7.5
			c0-3,1.1-5.5,3.3-7.7c2.2-2.1,4.9-3.1,8.1-3.1c2.2,0,4,0.5,5.5,1.3c1.5,0.9,2.9,2.4,4.3,4.4l74.7,120.3L1778.1,78
			c1.6-2.2,3.2-3.8,4.8-4.8c1.6-1,3.6-1.5,6-1.5C1791.9,71.7,1794.3,72.8,1796.2,74.9z"/>
		<path class="st25" d="M1949.4,145.1c2.2,2.1,3.3,4.9,3.3,8.3v141c0,3.4-1.1,6.2-3.3,8.4c-2.2,2.2-5,3.3-8.4,3.3
			c-3.4,0-6.2-1.1-8.3-3.3c-2.1-2.2-3.2-5-3.2-8.4v-10.2c-6.6,7.4-14.6,13.2-24,17.4c-9.4,4.2-19.6,6.3-30.6,6.3
			c-14.2,0-27-3-38.3-9c-11.3-6-20.2-14.7-26.6-26.3c-6.4-11.5-9.6-25.2-9.6-41.3v-78c0-3.2,1.1-5.9,3.3-8.1
			c2.2-2.2,4.9-3.3,8.1-3.3c3.4,0,6.2,1.1,8.4,3.3c2.2,2.2,3.3,4.9,3.3,8.1v78c0,17.8,5,31.4,14.9,40.7c9.9,9.3,22.8,14,38.8,14
			c9.8,0,18.6-1.9,26.5-5.7c7.9-3.8,14.1-9,18.8-15.8c4.6-6.7,6.9-14.1,6.9-22.4v-88.8c0-3.4,1-6.1,3.2-8.3c2.1-2.1,4.8-3.1,8.3-3.1
			C1944.4,141.9,1947.2,143,1949.4,145.1z"/>
		<path class="st25" d="M2122.6,149.1c11.3,6,20.1,14.8,26.5,26.3c6.4,11.5,9.6,25.3,9.6,41.3v78c0,3.2-1.1,5.9-3.3,8.1
			c-2.2,2.2-4.9,3.3-8.1,3.3c-3.4,0-6.2-1.1-8.4-3.3c-2.2-2.2-3.3-4.9-3.3-8.1v-78c0-17.8-5-31.3-14.8-40.6
			c-9.9-9.3-22.9-14-38.9-14c-9.8,0-18.7,1.9-26.5,5.7c-7.9,3.8-14.2,9.1-18.8,15.8c-4.6,6.7-6.9,14.2-6.9,22.3v88.8
			c0,3.4-1,6.2-3.1,8.3c-2.1,2.1-4.9,3.2-8.3,3.2c-3.4,0-6.2-1-8.4-3.2c-2.2-2.1-3.3-4.8-3.3-8.3v-141c0-3.4,1.1-6.2,3.3-8.4
			c2.2-2.2,5-3.3,8.4-3.3c3.4,0,6.1,1.1,8.3,3.3c2.1,2.2,3.1,5,3.1,8.4v10.2c6.6-7.4,14.6-13.2,24-17.4c9.4-4.2,19.6-6.3,30.6-6.3
			C2098.6,140.1,2111.3,143.1,2122.6,149.1z"/>
		<path class="st25" d="M2327.4,151.1c12.6,7.1,22.5,17,29.7,29.7c7.2,12.7,10.8,27.2,10.8,43.3v61.2c0,16-3.6,30.5-10.6,43.5
			c-7.1,13-17,23.3-29.5,30.8c-12.6,7.5-26.8,11.3-42.6,11.3c-15.4,0-29.1-2.9-41.1-8.7c-12-5.8-22.1-13.9-30.3-24.3
			c-1.8-2-2.7-4.3-2.7-6.9c0-3,1.4-5.6,4.2-7.8c2-1.4,4.2-2.1,6.6-2.1c1.8,0,3.6,0.5,5.4,1.3c1.8,0.9,3.2,2,4.2,3.5
			c6,7.6,13.6,13.5,22.8,17.7c9.2,4.2,19.6,6.3,31.2,6.3c11.2,0,21.3-2.8,30.5-8.3c9.1-5.5,16.2-13.2,21.5-23.1
			c5.2-9.9,7.8-21.2,7.8-34v-13.5c-6,11.4-14.5,20.4-25.5,26.8c-11,6.5-23.5,9.8-37.5,9.8c-15.6,0-29.5-3.5-41.8-10.7
			c-12.3-7.1-21.9-17-28.8-29.7c-6.9-12.7-10.4-27-10.4-43.1c0-16.2,3.6-30.6,10.8-43.3c7.2-12.7,17.1-22.6,29.9-29.7
			c12.7-7.1,26.9-10.6,42.8-10.6C2300.5,140.4,2314.8,144,2327.4,151.1z M2315.7,278.6c9.2-5.3,16.4-12.7,21.6-22.2
			c5.2-9.5,7.8-20.3,7.8-32.3s-2.6-22.7-7.8-32.3c-5.2-9.5-12.4-16.9-21.6-22.3c-9.2-5.4-19.6-8.1-31.2-8.1
			c-11.8,0-22.3,2.7-31.5,8.1c-9.2,5.4-16.4,12.9-21.6,22.3c-5.2,9.5-7.8,20.3-7.8,32.3s2.6,22.8,7.8,32.3
			c5.2,9.5,12.4,16.9,21.6,22.2c9.2,5.3,19.7,8,31.5,8C2296.1,286.5,2306.5,283.9,2315.7,278.6z"/>
	</g>
</g>
</svg>
