<svg width="2021.0000000000002" height="367" xmlns="http://www.w3.org/2000/svg">
 <style type="text/css">.st0{fill:#F4F4F4;}
	.st1{fill:#050505;}
	.st2{font-family:'Gilroy-Medium';}
	.st3{font-size:10.8999px;}
	.st4{letter-spacing:2;}
	.st5{font-family:'Gilroy-SemiBold';}
	.st6{font-size:17.7073px;}
	.st7{fill:#493B3B;}
	.st8{fill:#C1A7A7;}
	.st9{fill:none;stroke:#493B3B;stroke-width:6;stroke-linecap:round;stroke-linejoin:round;stroke-miterlimit:10;}
	.st10{fill:none;stroke:#493B3B;stroke-width:4;stroke-linecap:round;stroke-linejoin:round;stroke-miterlimit:10;}
	.st11{fill:#E2A86D;}
	.st12{fill:#D6975F;}
	.st13{filter:url(#Adobe_OpacityMaskFilter);}
	.st14{mask:url(#XMLID_6_);}
	.st15{fill:none;stroke:#CC894C;stroke-width:6;stroke-linecap:round;stroke-linejoin:round;stroke-miterlimit:10;}
	.st16{fill:#E5D6D6;}
	.st17{fill:#EFE6E6;}
	.st18{opacity:0.2;fill:#2D2D2D;stroke:#2D2D2D;stroke-width:8;stroke-linecap:round;stroke-linejoin:round;stroke-miterlimit:10;}
	.st19{fill:#DBC8C8;}
	.st20{fill:#845B5B;}
	.st21{fill:#704848;}
	.st22{fill:none;stroke:#493B3B;stroke-width:3;stroke-linecap:round;stroke-linejoin:round;stroke-miterlimit:10;}
	.st23{fill:none;stroke:#493B3B;stroke-width:8;stroke-linecap:round;stroke-linejoin:round;stroke-miterlimit:10;}
	.st24{fill:#B57F7F;}
	.st25{opacity:0.34;fill:#FFFFFF;}
	.st26{fill:#AD6D6D;}
	.st27{fill:#4C3535;}
	.st28{fill:#3F2E2E;}
	.st29{fill:#6A4949;}
	.st30{opacity:0.38;fill:#FFFFFF;}
	.st31{fill:#443636;}</style>

 <mask id="XMLID_6_" height="343.2" width="622.5" y="373.6" x="188.8" maskUnits="userSpaceOnUse">
  <g class="st13" id="XMLID_30_">
   <rect height="204.4" width="536" class="st11" y="472.721542" x="262.096075" id="XMLID_33_"/>
  </g>
 </mask>
 <g>
  <title>background</title>
  <rect fill="none" id="canvas_background" height="369" width="2023" y="-1" x="-1"/>
 </g>
 <g>
  <title>Layer 1</title>
  <path d="m199.559578,68.494223l-84,0l0,-14c0,-8.8 7.2,-16 16,-16l52,0c8.80001,0 16,7.2 16,16l0,14z" class="st8" id="XMLID_89_"/>
  <path d="m199.559578,68.494223l-84,0l0,-14c0,-8.8 7.2,-16 16,-16l52,0c8.80001,0 16,7.2 16,16l0,14z" class="st9" id="XMLID_2_"/>
  <g id="XMLID_190_">
   <g id="XMLID_217_">
    <line y2="68.494224" x2="194.859582" y1="41.794224" x1="194.859582" class="st10" id="XMLID_218_"/>
   </g>
   <g id="XMLID_214_">
    <line y2="68.494224" x2="185.859582" y1="41.794224" x1="185.859582" class="st10" id="XMLID_215_"/>
   </g>
   <g id="XMLID_211_">
    <line y2="68.494224" x2="176.859582" y1="41.794224" x1="176.859582" class="st10" id="XMLID_212_"/>
   </g>
   <g id="XMLID_208_">
    <line y2="68.494224" x2="167.859582" y1="41.794224" x1="167.859582" class="st10" id="XMLID_209_"/>
   </g>
   <g id="XMLID_205_">
    <line y2="68.494224" x2="158.859582" y1="41.794224" x1="158.859582" class="st10" id="XMLID_206_"/>
   </g>
   <g id="XMLID_202_">
    <line y2="68.494224" x2="149.859582" y1="41.794224" x1="149.859582" class="st10" id="XMLID_203_"/>
   </g>
   <g id="XMLID_199_">
    <line y2="68.494224" x2="140.859582" y1="41.794224" x1="140.859582" class="st10" id="XMLID_200_"/>
   </g>
   <g id="XMLID_196_">
    <line y2="68.494224" x2="131.859582" y1="41.794224" x1="131.859582" class="st10" id="XMLID_197_"/>
   </g>
   <g id="XMLID_193_">
    <line y2="68.494224" x2="122.859582" y1="41.794224" x1="122.859582" class="st10" id="XMLID_194_"/>
   </g>
  </g>
  <path d="m540.959588,32.594223l-322,0c-8.9,0 -17.1,4.3 -22.5,11.3c-11.3,15 -29.3,24.7 -49.5,24.7l-118,0l0,252c0,13.3 10.7,24 24,24l488,0c13.3,0 24,-10.7 24,-24l0,-264c0,-13.3 -10.8,-24 -24,-24z" class="st11" id="XMLID_53_"/>
  <rect height="204.1" width="29" class="st12" y="112.294224" x="28.959582" id="XMLID_80_"/>
  <rect height="204.1" width="29" class="st12" y="112.294224" x="535.959582" id="XMLID_111_"/>
  <g class="st14" id="XMLID_69_" stroke="null">
   <g id="XMLID_336_" stroke="null">
    <g id="XMLID_358_" stroke="null">
     <path d="m76.359588,87.808103c56,28.97722 81.79999,85.44342 64.5,133.94306c-20.40001,57.34163 -90.40001,73.97509 -94.5,74.85053" class="st15" id="XMLID_359_" stroke="null"/>
    </g>
    <path d="m96.259578,234.882833c-24,22.76157 -68.3,31.86619 -108.4,14.44484" class="st15" id="XMLID_357_" stroke="null"/>
    <path d="m1.359588,112.758283c60.7,4.46477 106,35.6306 112.5,72.2242c0.29999,1.92597 3.09999,18.9096 -5.40001,36.50604" class="st15" id="XMLID_356_" stroke="null"/>
    <path d="m-9.140422,165.284973c24,-14.88256 46.4,-16.45837 67.20001,-7.61637c14.6,6.3032 32.7,21.88612 30.6,33.87971c-3.6,21.01068 -44.6,45.69822 -79.9,44.64769" class="st15" id="XMLID_355_" stroke="null"/>
    <path d="m46.359588,167.123403c2.79999,1.92598 18,9.45481 14.6,26.00071c-1.1,5.42776 -16.80001,24.6 -43.1,20.74804" class="st15" id="XMLID_354_" stroke="null"/>
    <path d="m2.859588,187.608813c13.69999,-8.84199 34.4,-17.24626 43.5,-3.85196" class="st15" id="XMLID_353_" stroke="null"/>
    <path d="m2.859588,283.470023c9.8,0.70036 66.9,3.85196 103.5,-31.51601c9.5,-9.19217 15.59999,-18.99716 19.5,-27.57652" class="st15" id="XMLID_352_" stroke="null"/>
    <path d="m133.359588,87.808103c7.09999,14.61993 25.69999,46.57366 64.5,61.71886c58.4,22.84911 140.29999,-1.05053 192,-64.3452" class="st15" id="XMLID_351_" stroke="null"/>
    <path d="m181.359588,89.121273c0.69999,4.7274 3.59999,19.43487 18,31.51601c19.4,16.28328 44.09999,14.70747 48,14.44484" class="st15" id="XMLID_350_" stroke="null"/>
    <path d="m193.159588,251.078563c-14,-7.96655 -35,-20.92313 -35,-57.8669c0,-12.16868 4.3,-18.99716 7.6,-20.57296c11.5,-5.42775 48.3,30.72812 95.1,41.23346c36.4,8.22918 96.9,-11.55588 182.59999,-75.02563" class="st15" id="XMLID_349_" stroke="null"/>
    <path d="m472.259588,94.373943c-31.4,3.50178 -93.9,14.9701 -133.5,59.09252c-2.2,2.3637 -26,29.15232 -19.5,35.45552c4.3,4.11459 36.89999,-40.44555 98.6,-60.31815c14.9,-4.81495 27.9,-7.00356 36.9,-8.14164" class="st15" id="XMLID_348_" stroke="null"/>
    <path d="m97.359588,321.551873c7.29999,-30.81566 29.4,-51.65125 52.5,-52.52669c0.8,0 20,-0.52527 28.5,10.50534c10.19999,13.30676 1.69999,39.39501 -27,60.40569" class="st15" id="XMLID_347_" stroke="null"/>
    <path d="m146.159588,254.142623c27.3,-2.45125 51.7,9.62989 64.29999,28.80213c16.1,24.24983 13.40001,53.57723 -15.69999,72.74947" class="st15" id="XMLID_346_" stroke="null"/>
    <path d="m470.159578,145.149743c-4.3,4.28968 -26,18.64697 -34.5,22.84911c-44.2,21.88612 -50.3,10.15516 -94,53.48968c-23.6,23.37437 -44.1,80.45338 -79.4,119.76085" class="st15" id="XMLID_345_" stroke="null"/>
    <path d="m517.659578,60.494223c-0.8,22.93666 -14.7,48.06192 -35.2,71.52385" class="st15" id="XMLID_344_" stroke="null"/>
    <path d="m592.259588,114.071453c-9.3,1.13807 -63.9,8.84199 -94.5,51.21352c-3.9,5.34021 -16.9,23.89964 -18,48.58719c-1.9,42.63416 32.89999,84.91814 87,108.99288" class="st15" id="XMLID_343_" stroke="null"/>
    <path d="m520.059588,241.973943c8.8,27.22633 40.5,49.37508 79.7,57.34163" class="st15" id="XMLID_342_" stroke="null"/>
    <path d="m593.759588,163.971803c-32.20001,5.25267 -65.5,23.19929 -73.4,46.66121c-1.7,4.99004 -2.6,9.98007 -2.7,14.88256" class="st15" id="XMLID_341_" stroke="null"/>
    <path d="m365.759588,341.249383c12.5,-62.94448 52.6,-94.02278 74.19999,-106.45409c22.2,-12.69395 46.2,-7.44128 24.7,27.66405c-15.2,24.86264 0.9,60.4057 -33,82.72954" class="st15" id="XMLID_340_" stroke="null"/>
    <path d="m604.259588,191.548313c-37.20001,4.81495 -58.8,22.32385 -57,34.14235c1.5,9.71744 19.2,17.94662 40.5,21.01068" class="st15" id="XMLID_339_" stroke="null"/>
    <path d="m448.259588,211.245823c4.39999,-15.23274 15.89999,-45.96085 46.5,-74.85053c34,-32.12883 72.7,-44.20997 90,-48.58719" class="st15" id="XMLID_338_" stroke="null"/>
    <path d="m420.759588,287.934793c-1.9,-15.75801 5.69999,-27.83915 15.3,-29.76513c1.7,-0.35017 12.2,-1.13807 12.2,10.85552" class="st15" id="XMLID_337_" stroke="null"/>
   </g>
  </g>
  <g id="XMLID_120_">
   <path d="m186.159588,299.794223l50.29999,-22.2l-19.4,-43.9l-50.29999,22.2c-12.1,5.4 -17.6,19.5 -12.30001,31.6l0,0c5.40001,12.2 19.6,17.6 31.7,12.3l0.00001,0z" class="st16" id="XMLID_117_"/>
   <path d="m186.159588,299.794223l50.29999,-22.2l-19.4,-43.9l-50.29999,22.2c-12.1,5.4 -17.6,19.5 -12.30001,31.6l0,0c5.40001,12.2 19.6,17.6 31.7,12.3l0.00001,0z" class="st9" id="XMLID_106_"/>
   <circle r="14.4" cy="277.794224" cx="176.459582" class="st17" id="XMLID_119_"/>
   <circle r="14.4" cy="277.794224" cx="176.459582" class="st10" id="XMLID_110_"/>
  </g>
  <path d="m28.959578,316.394223l0,4.1c0,13.3 10.7,24 24,24l488,0c13.3,0 24,-10.7 24,-24l0,-4.1l-536,0z" class="st16" id="XMLID_55_"/>
  <path d="m296.959578,115.194223c-62.69999,0 -113.5,51 -113.5,113.8c0,8 0.80001,15.8 2.40001,23.4l-19.1,8.4c-12.1,5.4 -17.6,19.5 -12.30001,31.6l0,0c5.40001,12.1 19.5,17.6 31.6,12.3l19.2,-8.5c20.6,28.3 54,46.6 91.6,46.6c62.7,0 113.5,-51 113.5,-113.8c0.1,-62.8 -50.7,-113.8 -113.4,-113.8z" class="st18" id="XMLID_147_"/>
  <path d="m540.959588,344.594223l-5,0l0,-28.1l29,0l0,4.1c0,13.2 -10.8,24 -24,24z" class="st19" id="XMLID_153_"/>
  <path d="m52.959588,344.594223l5,0l0,-28.1l-29,0l0,4.1c0,13.2 10.7,24 24,24z" class="st19" id="XMLID_133_"/>
  <path d="m540.959588,32.294223l-322,0c-8.9,0 -17.2,4.3 -22.5,11.4c-11.3,15.1 -29.3,24.8 -49.5,24.8l-118,0l0,43.8l536,0l0,-55.9c0,-13.3 -10.8,-24.1 -24,-24.1z" class="st16" id="XMLID_54_"/>
  <rect height="42.8" width="29" class="st19" y="69.494224" x="28.959582" id="XMLID_4_"/>
  <path d="m396.159578,96.494223l-335,0c-1.8,0 -3.3,-1.5 -3.3,-3.3l0,0c0,-1.8 1.5,-3.3 3.3,-3.3l335,0c1.8,0 3.3,1.5 3.3,3.3l0,0c0,1.8 -1.5,3.3 -3.3,3.3z" class="st8" id="XMLID_166_"/>
  <path d="m540.859588,32.294223l-5,0l0,80l29,0l0,-56c0,-13.2 -10.70001,-24 -24,-24z" class="st19" id="XMLID_142_"/>
  <ellipse ry="113.8" rx="113.5" cy="212.094224" cx="296.959582" class="st16" id="XMLID_22_"/>
  <circle r="91" cy="212.094224" cx="296.959582" class="st20" id="XMLID_90_"/>
  <path d="m296.959578,141.094223c46.80001,0 85.5,35.5 90.40001,81c0.4,-3.3 0.6,-6.6 0.6,-10c0,-50.2 -40.8,-91 -91,-91s-91,40.8 -91,91c0,3.4 0.2,6.7 0.6,10c4.9,-45.5 43.6,-81 90.4,-81l-0.00001,0z" class="st21" id="XMLID_126_"/>
  <path d="m540.959588,32.594223l-322,0c-8.9,0 -17.1,4.3 -22.5,11.3c-11.3,15 -29.3,24.7 -49.5,24.7l-118,0l0,252c0,13.3 10.7,24 24,24l488,0c13.3,0 24,-10.7 24,-24l0,-264c0,-13.3 -10.8,-24 -24,-24z" class="st9" id="XMLID_52_"/>
  <circle r="102.5" cy="212.094224" cx="296.959582" class="st22" id="XMLID_24_"/>
  <circle r="91" cy="212.094224" cx="296.959582" class="st23" id="XMLID_25_"/>
  <circle r="62" cy="212.094224" cx="296.959582" class="st24" id="XMLID_82_"/>
  <path d="m339.659578,212.094223c30,0 46.5,35 27.3,58c-16.69999,20.1 -41.89999,33 -70,33c-28.1,0 -53.3,-12.8 -70,-33c-19.19999,-23.1 -2.59999,-58 27.30001,-58l85.39999,0z" class="st25" id="XMLID_91_"/>
  <path d="m296.959578,170.094223c30.80001,0 56.4,22.6 61.2,52c0.5,-3.3 0.8,-6.6 0.8,-10c0,-34.2 -27.8,-62 -62,-62s-62,27.8 -62,62c0,3.4 0.30001,6.7 0.80001,10c4.8,-29.5 30.4,-52 61.19999,-52z" class="st26" id="XMLID_108_"/>
  <circle r="62" cy="212.094224" cx="296.959582" class="st9" id="XMLID_27_"/>
  <circle r="37" cy="212.094224" cx="296.959582" class="st27" id="XMLID_84_"/>
  <circle r="37" cy="212.094224" cx="296.959582" class="st22" id="XMLID_37_"/>
  <circle r="23.5" cy="212.094224" cx="296.959582" class="st28" id="XMLID_85_"/>
  <path d="m104.359588,68.494223l-52.3,0l0,-10c0,-3.3 2.7,-6 6,-6l40.3,0c3.29999,0 6,2.7 6,6l0,10z" class="st29" id="XMLID_150_"/>
  <path d="m104.359588,68.494223l-52.3,0l0,-10c0,-3.3 2.7,-6 6,-6l40.3,0c3.29999,0 6,2.7 6,6l0,10z" class="st9" id="XMLID_20_"/>
  <rect height="11.9" width="36" class="st9" y="40.594224" x="60.259582" id="XMLID_29_"/>
  <rect height="11.9" width="36" class="st7" y="40.594224" x="60.259582" id="XMLID_115_"/>
  <ellipse ry="113.8" rx="113.5" cy="212.094224" cx="296.959582" class="st23" id="XMLID_79_"/>
  <path d="m296.959578,188.594223c-13,0 -23.5,10.5 -23.5,23.5c0,0.1 0,0.1 0,0.2c3.10001,-2.6 7.7,-4 13.80001,-3.5c6.1,0.5 7.19999,2.4 14,4.4c6,1.7 13.69999,1.1 19.19999,-1.6c-0.3,-12.8 -10.69999,-23 -23.5,-23z" class="st30" id="XMLID_98_"/>
  <circle r="76" cy="212.094224" cx="296.959582" class="st22" id="XMLID_26_"/>
  <circle r="91" cy="212.094224" cx="296.959582" class="st23" id="XMLID_86_"/>
  <path d="m510.459578,104.294223l-85.69999,0c-6.5,0 -11.80001,-5.3 -11.80001,-11.8l0,-34.2c0,-6.5 5.30001,-11.8 11.80001,-11.8l85.69999,0c6.5,0 11.80001,5.3 11.80001,11.8l0,34.2c0,6.5 -5.30001,11.8 -11.80001,11.8z" class="st31" id="XMLID_114_"/>
  <path d="m510.459578,104.294223l-85.69999,0c-6.5,0 -11.80001,-5.3 -11.80001,-11.8l0,-34.2c0,-6.5 5.30001,-11.8 11.80001,-11.8l85.69999,0c6.5,0 11.80001,5.3 11.80001,11.8l0,34.2c0,6.5 -5.30001,11.8 -11.80001,11.8z" class="st10" id="XMLID_151_"/>
  <path d="m502.959578,98.294223l-70.69999,0c-5.5,0 -10,-4.5 -10,-10l0,-25.8c0,-5.5 4.5,-10 10,-10l70.69999,0c5.5,0 10,4.5 10,10l0,25.8c0,5.6 -4.5,10 -10,10z" class="st20" id="XMLID_149_"/>
  <path d="m485.659578,98.294223l27.2,-37.2c-0.7,-4.8 -4.8,-8.6 -9.9,-8.6l-3.19999,0l-33.4,45.8l19.3,0l-0.00001,0z" class="st30" id="XMLID_395_"/>
  <polygon points="459.05963134765625,98.29422557353973 492.4595947265625,52.494237780570984 486.5595703125,52.494237780570984 453.1595458984375,98.29422557353973 " class="st30" id="XMLID_394_"/>
  <text fill="#000000" stroke="null" stroke-width="0" stroke-opacity="null" fill-opacity="null" x="682.195936" y="280.294223" id="svg_3" font-size="250" font-family="Oswald, sans-serif" text-anchor="start" xml:space="preserve" font-weight="normal">Hsien Yung</text>
 </g>
</svg>