<svg width="2278" height="392" xmlns="http://www.w3.org/2000/svg">
 <style type="text/css">.st0{fill:#F4F4F4;}
	.st1{fill:#050505;}
	.st2{font-family:'Gilroy-Medium';}
	.st3{font-size:10.8999px;}
	.st4{letter-spacing:2;}
	.st5{font-family:'Gilroy-SemiBold';}
	.st6{font-size:17.7073px;}
	.st7{fill:#493B3B;}
	.st8{fill:#C1A7A7;}
	.st9{fill:none;stroke:#493B3B;stroke-width:6;stroke-linecap:round;stroke-linejoin:round;stroke-miterlimit:10;}
	.st10{fill:none;stroke:#493B3B;stroke-width:4;stroke-linecap:round;stroke-linejoin:round;stroke-miterlimit:10;}
	.st11{fill:#E2A86D;}
	.st12{fill:#D6975F;}
	.st13{filter:url(#Adobe_OpacityMaskFilter);}
	.st14{mask:url(#XMLID_6_);}
	.st15{fill:none;stroke:#CC894C;stroke-width:6;stroke-linecap:round;stroke-linejoin:round;stroke-miterlimit:10;}
	.st16{fill:#E5D6D6;}
	.st17{fill:#EFE6E6;}
	.st18{opacity:0.2;fill:#2D2D2D;stroke:#2D2D2D;stroke-width:8;stroke-linecap:round;stroke-linejoin:round;stroke-miterlimit:10;}
	.st19{fill:#DBC8C8;}
	.st20{fill:#845B5B;}
	.st21{fill:#704848;}
	.st22{fill:none;stroke:#493B3B;stroke-width:3;stroke-linecap:round;stroke-linejoin:round;stroke-miterlimit:10;}
	.st23{fill:none;stroke:#493B3B;stroke-width:8;stroke-linecap:round;stroke-linejoin:round;stroke-miterlimit:10;}
	.st24{fill:#B57F7F;}
	.st25{opacity:0.34;fill:#FFFFFF;}
	.st26{fill:#AD6D6D;}
	.st27{fill:#4C3535;}
	.st28{fill:#3F2E2E;}
	.st29{fill:#6A4949;}
	.st30{opacity:0.38;fill:#FFFFFF;}
	.st31{fill:#443636;}</style>

 <mask maskUnits="userSpaceOnUse" x="188.8" y="373.6" width="622.5" height="343.2" id="XMLID_6_">
  <g id="XMLID_30_" class="st13">
   <rect id="XMLID_33_" x="262.096075" y="472.721542" class="st11" width="536" height="204.4"/>
  </g>
 </mask>
 <g>
  <title>background</title>
  <rect x="-1" y="-1" width="2280" height="394" id="canvas_background" fill="none"/>
 </g>
 <g>
  <title>Layer 1</title>
  <path id="XMLID_89_" class="st8" d="m188.500015,77.735612l-84,0l0,-14c0,-8.8 7.2,-16 16,-16l52,0c8.8,0 16,7.2 16,16l0,14z"/>
  <path id="XMLID_2_" class="st9" d="m188.500015,77.735612l-84,0l0,-14c0,-8.8 7.2,-16 16,-16l52,0c8.8,0 16,7.2 16,16l0,14z"/>
  <g id="XMLID_190_">
   <g id="XMLID_217_">
    <line id="XMLID_218_" class="st10" x1="183.800014" y1="51.035611" x2="183.800014" y2="77.735611"/>
   </g>
   <g id="XMLID_214_">
    <line id="XMLID_215_" class="st10" x1="174.800014" y1="51.035611" x2="174.800014" y2="77.735611"/>
   </g>
   <g id="XMLID_211_">
    <line id="XMLID_212_" class="st10" x1="165.800014" y1="51.035611" x2="165.800014" y2="77.735611"/>
   </g>
   <g id="XMLID_208_">
    <line id="XMLID_209_" class="st10" x1="156.800014" y1="51.035611" x2="156.800014" y2="77.735611"/>
   </g>
   <g id="XMLID_205_">
    <line id="XMLID_206_" class="st10" x1="147.800014" y1="51.035611" x2="147.800014" y2="77.735611"/>
   </g>
   <g id="XMLID_202_">
    <line id="XMLID_203_" class="st10" x1="138.800014" y1="51.035611" x2="138.800014" y2="77.735611"/>
   </g>
   <g id="XMLID_199_">
    <line id="XMLID_200_" class="st10" x1="129.800014" y1="51.035611" x2="129.800014" y2="77.735611"/>
   </g>
   <g id="XMLID_196_">
    <line id="XMLID_197_" class="st10" x1="120.800014" y1="51.035611" x2="120.800014" y2="77.735611"/>
   </g>
   <g id="XMLID_193_">
    <line id="XMLID_194_" class="st10" x1="111.800014" y1="51.035611" x2="111.800014" y2="77.735611"/>
   </g>
  </g>
  <path id="XMLID_53_" class="st11" d="m529.900015,41.835612l-322,0c-8.9,0 -17.1,4.3 -22.5,11.3c-11.3,15 -29.3,24.7 -49.5,24.7l-118,0l0,252c0,13.3 10.7,24 24,24l488,0c13.3,0 24,-10.7 24,-24l0,-264c0,-13.3 -10.8,-24 -24,-24z"/>
  <rect id="XMLID_80_" x="17.900014" y="121.535611" class="st12" width="29" height="204.1"/>
  <rect id="XMLID_111_" x="524.900014" y="121.535611" class="st12" width="29" height="204.1"/>
  <g stroke="null" id="XMLID_69_" class="st14">
   <g stroke="null" id="XMLID_336_">
    <g stroke="null" id="XMLID_358_">
     <path stroke="null" id="XMLID_359_" class="st15" d="m65.300015,97.04949c56,28.977224 81.8,85.443415 64.5,133.943059c-20.4,57.341636 -90.4,73.975088 -94.5,74.850533"/>
    </g>
    <path stroke="null" id="XMLID_357_" class="st15" d="m85.200015,244.124222c-24,22.761566 -68.3,31.866192 -108.4,14.44484"/>
    <path stroke="null" id="XMLID_356_" class="st15" d="m-9.699985,121.999668c60.7,4.464769 106,35.630605 112.5,72.224198c0.3,1.925979 3.1,18.909608 -5.4,36.506049"/>
    <path stroke="null" id="XMLID_355_" class="st15" d="m-20.199985,174.526358c24,-14.882562 46.4,-16.458363 67.2,-7.61637c14.6,6.303203 32.7,21.886121 30.6,33.879715c-3.6,21.010676 -44.6,45.69822 -79.9,44.647686"/>
    <path stroke="null" id="XMLID_354_" class="st15" d="m35.300015,176.364792c2.8,1.925979 18,9.454804 14.6,26.000711c-1.1,5.427758 -16.8,24.6 -43.1,20.748042"/>
    <path stroke="null" id="XMLID_353_" class="st15" d="m-8.199985,196.850201c13.7,-8.841993 34.4,-17.246263 43.5,-3.851957"/>
    <path stroke="null" id="XMLID_352_" class="st15" d="m-8.199985,292.71141c9.8,0.700356 66.9,3.851957 103.5,-31.516014c9.5,-9.192171 15.6,-18.997153 19.5,-27.576512"/>
    <path stroke="null" id="XMLID_351_" class="st15" d="m122.300015,97.04949c7.1,14.619929 25.7,46.573665 64.5,61.71886c58.4,22.84911 140.3,-1.050534 192,-64.345195"/>
    <path stroke="null" id="XMLID_350_" class="st15" d="m170.300015,98.362658c0.7,4.727402 3.6,19.434875 18,31.516014c19.4,16.283274 44.1,14.707473 48,14.44484"/>
    <path stroke="null" id="XMLID_349_" class="st15" d="m182.100015,260.319951c-14,-7.966548 -35,-20.923131 -35,-57.866903c0,-12.168683 4.3,-18.997153 7.6,-20.572953c11.5,-5.427758 48.3,30.728114 95.1,41.233451c36.4,8.229181 96.9,-11.555872 182.6,-75.025622"/>
    <path stroke="null" id="XMLID_348_" class="st15" d="m461.200015,103.615327c-31.4,3.501779 -93.9,14.970107 -133.5,59.092526c-2.2,2.363701 -26,29.152313 -19.5,35.455516c4.3,4.114591 36.9,-40.445551 98.6,-60.318149c14.9,-4.814947 27.9,-7.003559 36.9,-8.141637"/>
    <path stroke="null" id="XMLID_347_" class="st15" d="m86.300015,330.79326c7.3,-30.815658 29.4,-51.651245 52.5,-52.52669c0.8,0 20,-0.525267 28.5,10.505338c10.2,13.306761 1.7,39.395017 -27,60.405693"/>
    <path stroke="null" id="XMLID_346_" class="st15" d="m135.100015,263.384008c27.3,-2.451246 51.7,9.629893 64.3,28.802135c16.1,24.249822 13.4,53.577224 -15.7,72.749465"/>
    <path stroke="null" id="XMLID_345_" class="st15" d="m459.100015,154.391127c-4.3,4.28968 -26,18.646975 -34.5,22.84911c-44.2,21.886121 -50.3,10.15516 -94,53.489679c-23.6,23.374377 -44.1,80.45338 -79.4,119.760853"/>
    <path stroke="null" id="XMLID_344_" class="st15" d="m506.600015,69.735612c-0.8,22.936655 -14.7,48.061921 -35.2,71.523843"/>
    <path stroke="null" id="XMLID_343_" class="st15" d="m581.200015,123.312835c-9.3,1.138078 -63.9,8.841993 -94.5,51.213523c-3.9,5.340213 -16.9,23.899644 -18,48.587188c-1.9,42.634163 32.9,84.918148 87,108.992881"/>
    <path stroke="null" id="XMLID_342_" class="st15" d="m509.000015,251.215325c8.8,27.226334 40.5,49.375088 79.7,57.341636"/>
    <path stroke="null" id="XMLID_341_" class="st15" d="m582.700015,173.213191c-32.2,5.252669 -65.5,23.199288 -73.4,46.661209c-1.7,4.990036 -2.6,9.980071 -2.7,14.882562"/>
    <path stroke="null" id="XMLID_340_" class="st15" d="m354.700015,350.490768c12.5,-62.944483 52.6,-94.022775 74.2,-106.454091c22.2,-12.69395 46.2,-7.441281 24.7,27.664057c-15.2,24.862633 0.9,60.405693 -33,82.729536"/>
    <path stroke="null" id="XMLID_339_" class="st15" d="m593.200015,200.789703c-37.2,4.814947 -58.8,22.323843 -57,34.142348c1.5,9.717438 19.2,17.946619 40.5,21.010676"/>
    <path stroke="null" id="XMLID_338_" class="st15" d="m437.200015,220.487211c4.4,-15.23274 15.9,-45.960854 46.5,-74.850533c34,-32.128825 72.7,-44.209964 90,-48.587188"/>
    <path stroke="null" id="XMLID_337_" class="st15" d="m409.700015,297.176178c-1.9,-15.758007 5.7,-27.839146 15.3,-29.765124c1.7,-0.350178 12.2,-1.138078 12.2,10.855516"/>
   </g>
  </g>
  <g id="XMLID_120_">
   <path id="XMLID_117_" class="st16" d="m175.100015,309.035612l50.3,-22.2l-19.4,-43.9l-50.3,22.2c-12.1,5.4 -17.6,19.5 -12.3,31.6l0,0c5.4,12.2 19.6,17.6 31.7,12.3z"/>
   <path id="XMLID_106_" class="st9" d="m175.100015,309.035612l50.3,-22.2l-19.4,-43.9l-50.3,22.2c-12.1,5.4 -17.6,19.5 -12.3,31.6l0,0c5.4,12.2 19.6,17.6 31.7,12.3z"/>
   <circle id="XMLID_119_" class="st17" cx="165.400014" cy="287.035611" r="14.4"/>
   <circle id="XMLID_110_" class="st10" cx="165.400014" cy="287.035611" r="14.4"/>
  </g>
  <path id="XMLID_55_" class="st16" d="m17.900015,325.635612l0,4.1c0,13.3 10.7,24 24,24l488,0c13.3,0 24,-10.7 24,-24l0,-4.1l-536,0z"/>
  <path id="XMLID_147_" class="st18" d="m285.900015,124.435612c-62.7,0 -113.5,51 -113.5,113.8c0,8 0.8,15.8 2.4,23.4l-19.1,8.4c-12.1,5.4 -17.6,19.5 -12.3,31.6l0,0c5.4,12.1 19.5,17.6 31.6,12.3l19.2,-8.5c20.6,28.3 54,46.6 91.6,46.6c62.7,0 113.5,-51 113.5,-113.8c0.1,-62.8 -50.7,-113.8 -113.4,-113.8z"/>
  <path id="XMLID_153_" class="st19" d="m529.900015,353.835612l-5,0l0,-28.1l29,0l0,4.1c0,13.2 -10.8,24 -24,24z"/>
  <path id="XMLID_133_" class="st19" d="m41.900015,353.835612l5,0l0,-28.1l-29,0l0,4.1c0,13.2 10.7,24 24,24z"/>
  <path id="XMLID_54_" class="st16" d="m529.900015,41.535612l-322,0c-8.9,0 -17.2,4.3 -22.5,11.4c-11.3,15.1 -29.3,24.8 -49.5,24.8l-118,0l0,43.8l536,0l0,-55.9c0,-13.3 -10.8,-24.1 -24,-24.1z"/>
  <rect id="XMLID_4_" x="17.900014" y="78.735611" class="st19" width="29" height="42.8"/>
  <path id="XMLID_166_" class="st8" d="m385.100015,105.735612l-335,0c-1.8,0 -3.3,-1.5 -3.3,-3.3l0,0c0,-1.8 1.5,-3.3 3.3,-3.3l335,0c1.8,0 3.3,1.5 3.3,3.3l0,0c0,1.8 -1.5,3.3 -3.3,3.3z"/>
  <path id="XMLID_142_" class="st19" d="m529.800015,41.535612l-5,0l0,80l29,0l0,-56c0,-13.2 -10.7,-24 -24,-24z"/>
  <ellipse id="XMLID_22_" class="st16" cx="285.900014" cy="221.335611" rx="113.5" ry="113.8"/>
  <circle id="XMLID_90_" class="st20" cx="285.900014" cy="221.335611" r="91"/>
  <path id="XMLID_126_" class="st21" d="m285.900015,150.335612c46.8,0 85.5,35.5 90.4,81c0.4,-3.3 0.6,-6.6 0.6,-10c0,-50.2 -40.8,-91 -91,-91s-91,40.8 -91,91c0,3.4 0.2,6.7 0.6,10c4.9,-45.5 43.6,-81 90.4,-81z"/>
  <path id="XMLID_52_" class="st9" d="m529.900015,41.835612l-322,0c-8.9,0 -17.1,4.3 -22.5,11.3c-11.3,15 -29.3,24.7 -49.5,24.7l-118,0l0,252c0,13.3 10.7,24 24,24l488,0c13.3,0 24,-10.7 24,-24l0,-264c0,-13.3 -10.8,-24 -24,-24z"/>
  <circle id="XMLID_24_" class="st22" cx="285.900014" cy="221.335611" r="102.5"/>
  <circle id="XMLID_25_" class="st23" cx="285.900014" cy="221.335611" r="91"/>
  <circle id="XMLID_82_" class="st24" cx="285.900014" cy="221.335611" r="62"/>
  <path id="XMLID_91_" class="st25" d="m328.600015,221.335612c30,0 46.5,35 27.3,58c-16.7,20.1 -41.9,33 -70,33c-28.1,0 -53.3,-12.8 -70,-33c-19.2,-23.1 -2.6,-58 27.3,-58l85.4,0z"/>
  <path id="XMLID_108_" class="st26" d="m285.900015,179.335612c30.8,0 56.4,22.6 61.2,52c0.5,-3.3 0.8,-6.6 0.8,-10c0,-34.2 -27.8,-62 -62,-62s-62,27.8 -62,62c0,3.4 0.3,6.7 0.8,10c4.8,-29.5 30.4,-52 61.2,-52z"/>
  <circle id="XMLID_27_" class="st9" cx="285.900014" cy="221.335611" r="62"/>
  <circle id="XMLID_84_" class="st27" cx="285.900014" cy="221.335611" r="37"/>
  <circle id="XMLID_37_" class="st22" cx="285.900014" cy="221.335611" r="37"/>
  <circle id="XMLID_85_" class="st28" cx="285.900014" cy="221.335611" r="23.5"/>
  <path id="XMLID_150_" class="st29" d="m93.300015,77.735612l-52.3,0l0,-10c0,-3.3 2.7,-6 6,-6l40.3,0c3.3,0 6,2.7 6,6l0,10z"/>
  <path id="XMLID_20_" class="st9" d="m93.300015,77.735612l-52.3,0l0,-10c0,-3.3 2.7,-6 6,-6l40.3,0c3.3,0 6,2.7 6,6l0,10z"/>
  <rect id="XMLID_29_" x="49.200014" y="49.835611" class="st9" width="36" height="11.9"/>
  <rect id="XMLID_115_" x="49.200014" y="49.835611" class="st7" width="36" height="11.9"/>
  <ellipse id="XMLID_79_" class="st23" cx="285.900014" cy="221.335611" rx="113.5" ry="113.8"/>
  <path id="XMLID_98_" class="st30" d="m285.900015,197.835612c-13,0 -23.5,10.5 -23.5,23.5c0,0.1 0,0.1 0,0.2c3.1,-2.6 7.7,-4 13.8,-3.5c6.1,0.5 7.2,2.4 14,4.4c6,1.7 13.7,1.1 19.2,-1.6c-0.3,-12.8 -10.7,-23 -23.5,-23z"/>
  <circle id="XMLID_26_" class="st22" cx="285.900014" cy="221.335611" r="76"/>
  <circle id="XMLID_86_" class="st23" cx="285.900014" cy="221.335611" r="91"/>
  <path id="XMLID_114_" class="st31" d="m499.400015,113.535612l-85.7,0c-6.5,0 -11.8,-5.3 -11.8,-11.8l0,-34.2c0,-6.5 5.3,-11.8 11.8,-11.8l85.7,0c6.5,0 11.8,5.3 11.8,11.8l0,34.2c0,6.5 -5.3,11.8 -11.8,11.8z"/>
  <path id="XMLID_151_" class="st10" d="m499.400015,113.535612l-85.7,0c-6.5,0 -11.8,-5.3 -11.8,-11.8l0,-34.2c0,-6.5 5.3,-11.8 11.8,-11.8l85.7,0c6.5,0 11.8,5.3 11.8,11.8l0,34.2c0,6.5 -5.3,11.8 -11.8,11.8z"/>
  <path id="XMLID_149_" class="st20" d="m491.900015,107.535612l-70.7,0c-5.5,0 -10,-4.5 -10,-10l0,-25.8c0,-5.5 4.5,-10 10,-10l70.7,0c5.5,0 10,4.5 10,10l0,25.8c0,5.6 -4.5,10 -10,10z"/>
  <path id="XMLID_395_" class="st30" d="m474.600015,107.535612l27.2,-37.2c-0.7,-4.8 -4.8,-8.6 -9.9,-8.6l-3.2,0l-33.4,45.8l19.3,0z"/>
  <polygon id="XMLID_394_" class="st30" points="448.00006103515625,107.53561401367188 481.4000244140625,61.735626220703125 475.5,61.735626220703125 442.0999755859375,107.53561401367188 "/>
  <text font-weight="normal" xml:space="preserve" text-anchor="start" font-family="Euphoria, sans-serif" font-size="250" id="svg_3" y="289.53561" x="707.5" fill-opacity="null" stroke-opacity="null" stroke-width="0" stroke="null" fill="#000000">HSIEN YUNG</text>
 </g>
</svg>